Coordinates
version=1
nRows=29
nColumns=24
inDegrees=yes

Units are S.I. units (second, meters, Newtons, ...)
Angles are in degrees.

endheader
time	pelvis_tilt	pelvis_list	pelvis_rotation	pelvis_tx	pelvis_ty	pelvis_tz	hip_flexion_r	hip_adduction_r	hip_rotation_r	knee_angle_r	ankle_angle_r	subtalar_angle_r	mtp_angle_r	hip_flexion_l	hip_adduction_l	hip_rotation_l	knee_angle_l	ankle_angle_l	subtalar_angle_l	mtp_angle_l	lumbar_extension	lumbar_bending	lumbar_rotation
      3.34500000	    -14.03612627	     11.61466012	     -9.80675373	      1.33908902	     -0.02831297	     -0.42562353	     16.34446443	    -17.53456187	     -0.40941298	    -56.00555497	    -28.46522512	      5.94786548	     36.15756932	     31.19508318	      7.84343902	    -17.64806560	    -18.78287685	     -7.46176661	      0.01920984	      8.00579369	     15.53034144	    -12.20957198	     10.29130374
      3.35000000	    -14.00393473	     11.55828211	     -9.59053771	      1.34532166	     -0.02730836	     -0.42661382	     17.01670981	    -17.41539591	     -0.29052207	    -57.00841099	    -27.69315247	      5.91004943	     36.43890633	     30.59571201	      8.08826617	    -17.46785146	    -18.45807424	     -7.15472199	      0.28002617	      7.99361151	     15.45232324	    -12.18667101	      9.95374356
      3.35500000	    -13.95361124	     11.45835763	     -9.37974967	      1.35152243	     -0.02621585	     -0.42757456	     17.64729001	    -17.23210383	     -0.14244016	    -57.91929528	    -26.96495661	      6.07648895	     36.80924241	     29.96390982	      8.28169633	    -17.28433742	    -18.12515480	     -6.86733548	      0.61344674	      8.01961294	     15.34235142	    -12.11939142	      9.58290388
      3.36000000	    -13.88570613	     11.31518018	     -9.16422184	      1.35773778	     -0.02508827	     -0.42854353	     18.23133618	    -17.01065780	     -0.03606854	    -58.74825469	    -26.27653844	      6.35033601	     37.26084611	     29.30115951	      8.43802664	    -17.06984715	    -17.78688831	     -6.58664907	      0.90894175	      8.07911455	     15.21058811	    -12.01277334	      9.20510210
      3.36500000	    -13.81355669	     11.14290882	     -8.92718040	      1.36395385	     -0.02394465	     -0.42954844	     18.78446073	    -16.76369534	      0.03875770	    -59.50005676	    -25.63425198	      6.73394963	     37.79037047	     28.62598438	      8.57555695	    -16.80762583	    -17.44503599	     -6.33102590	      1.17790822	      8.14917109	     15.06357309	    -11.87836023	      8.79938037
      3.37000000	    -13.73958861	     10.94393071	     -8.67378623	      1.37017250	     -0.02279252	     -0.43057726	     19.31235385	    -16.49360940	      0.08210920	    -60.17859131	    -25.03714289	      7.20204330	     38.38654555	     27.94137863	      8.69239542	    -16.50259175	    -17.10059462	     -6.09015487	      1.41530215	      8.21030558	     14.91023344	    -11.71805964	      8.37180479
      3.37500000	    -13.57909315	     10.73068939	     -8.40517905	      1.37641639	     -0.02154786	     -0.43168425	     19.70808224	    -16.24847269	      0.05017237	    -60.72616528	    -24.57880129	      7.53371007	     39.69263774	     27.14942398	      8.83526525	    -16.09439392	    -16.74075746	     -5.84564127	      1.54255696	      8.10172669	     14.65883868	    -11.55624092	      7.92531466
      3.38000000	    -13.56835457	     10.48203538	     -8.14217846	      1.38262228	     -0.02049368	     -0.43270142	     20.28304610	    -15.90609059	      0.06848975	    -61.30555365	    -24.00202230	      8.12171501	     40.12794575	     26.52774537	      8.87488909	    -15.77370112	    -16.40662365	     -5.59855583	      1.77305627	      8.21004045	     14.57637112	    -11.32877647	      7.51704775
      3.38500000	    -13.43720160	     10.24528317	     -7.82652995	      1.38881664	     -0.01930355	     -0.43384169	     20.68842309	    -15.64088402	     -0.01258848	    -61.76377599	    -23.55907175	      8.60321747	     41.18320517	     25.76154631	      8.99247565	    -15.28780485	    -16.04134622	     -5.40679051	      1.86510669	      8.10189808	     14.34764316	    -11.15232480	      6.99061300
      3.39000000	    -13.42196485	      9.98251580	     -7.55930636	      1.39496299	     -0.01827263	     -0.43484826	     21.24801893	    -15.28261644	     -0.01355451	    -62.23264856	    -23.03874277	      9.22172208	     41.62837901	     25.13290983	      9.00507582	    -14.95623183	    -15.69962940	     -5.19002749	      2.08356747	      8.17573484	     14.25958104	    -10.91240149	      6.54847895
      3.39500000	    -13.29975378	      9.72719944	     -7.23005038	      1.40113150	     -0.01716733	     -0.43600310	     21.64749727	    -15.00310580	     -0.14135404	    -62.60389116	    -22.57277299	      9.67560545	     42.51241890	     24.37414822	      9.08938084	    -14.44798634	    -15.33612197	     -4.99068600	      2.16017563	      8.07161702	     14.04201788	    -10.70888857	      6.04512608
      3.40000000	    -13.28048024	      9.46484989	     -6.95456243	      1.40721964	     -0.01620821	     -0.43703329	     22.19814805	    -14.65633538	     -0.17953776	    -62.98183586	    -22.06483809	     10.22675195	     42.91963938	     23.74427020	      9.09264803	    -14.11726921	    -14.98977140	     -4.78725709	      2.35594429	      8.12846663	     13.95238614	    -10.46706837	      5.59946939
      3.40500000	    -13.23502521	      9.20681979	     -6.65755166	      1.41331537	     -0.01529694	     -0.43810567	     22.70662706	    -14.34501738	     -0.28561721	    -63.32022847	    -21.52190660	     10.69159672	     43.30067838	     23.08682709	      9.11021180	    -13.73365035	    -14.64709496	     -4.57575826	      2.51746325	      8.17414385	     13.83565627	    -10.23826402	      5.17520218
      3.41000000	    -13.16123416	      8.94258140	     -6.32297221	      1.41938459	     -0.01432974	     -0.43924242	     23.16238496	    -14.04480622	     -0.42223279	    -63.58347027	    -21.05309211	     11.10072029	     43.72077524	     22.38911137	      9.13708965	    -13.30574400	    -14.28169597	     -4.41736967	      2.67297436	      8.17279553	     13.67577174	    -10.01325256	      4.64139827
      3.41500000	    -13.09120417	      8.68059026	     -6.00098043	      1.42543492	     -0.01344484	     -0.44037237	     23.62775669	    -13.75283835	     -0.58166929	    -63.81728233	    -20.55480899	     11.39059139	     44.08182445	     21.70119969	      9.15072203	    -12.89469047	    -13.92302375	     -4.23566701	      2.82200145	      8.18974740	     13.52935643	     -9.78139993	      4.17243762
      3.42000000	    -13.02303772	      8.42162498	     -5.67683828	      1.43146445	     -0.01260792	     -0.44150595	     24.09536790	    -13.47239167	     -0.76297955	    -64.01375381	    -20.05917481	     11.58312668	     44.37300161	     21.01781002	      9.15722183	    -12.49538576	    -13.56342523	     -4.05865210	      2.98153030	      8.22037747	     13.38973547	     -9.55156859	      3.70779698
      3.42500000	    -12.95835864	      8.16074400	     -5.34216586	      1.43748130	     -0.01181636	     -0.44266499	     24.56033719	    -13.20050476	     -0.96842892	    -64.16774535	    -19.56432145	     11.68888239	     44.58419007	     20.33994205	      9.15558291	    -12.09806283	    -13.20399509	     -3.88522270	      3.15279729	      8.26752071	     13.25410605	     -9.31634611	      3.24336230
      3.43000000	    -12.89269973	      7.89959437	     -5.00437118	      1.44347802	     -0.01106736	     -0.44383122	     25.02156961	    -12.93796045	     -1.19694663	    -64.28286991	    -19.07245306	     11.69217434	     44.70868281	     19.66275608	      9.14572351	    -11.70340280	    -12.84196902	     -3.71670515	      3.32427266	      8.32543952	     13.12164121	     -9.07958107	      2.78147912
      3.43500000	    -12.82625238	      7.63754479	     -4.66298617	      1.44946452	     -0.01035879	     -0.44501037	     25.47683114	    -12.68346542	     -1.44471935	    -64.35694884	    -18.58342254	     11.59986232	     44.74152249	     18.98664086	      9.12776522	    -11.30958471	    -12.47983575	     -3.55276944	      3.49036636	      8.39173765	     12.99114339	     -8.83941221	      2.32327391
      3.44000000	    -12.76275577	      7.37483724	     -4.31891304	      1.45542903	     -0.00969581	     -0.44619220	     25.93135196	    -12.43759735	     -1.71260375	    -64.39132925	    -18.09571732	     11.42447740	     44.68129316	     18.31788079	      9.10014854	    -10.91522680	    -12.11948151	     -3.39405113	      3.65277259	      8.46418935	     12.86842846	     -8.59598332	      1.87218797
      3.44500000	    -12.69938110	      7.11107083	     -3.97322534	      1.46137470	     -0.00907305	     -0.44737319	     26.38011393	    -12.19823403	     -1.99683691	    -64.38449168	    -17.60602668	     11.17341008	     44.52527640	     17.65347287	      9.06305711	    -10.51765983	    -11.76212793	     -3.24062345	      3.80300993	      8.53620687	     12.74953208	     -8.35105029	      1.42553218
      3.45000000	    -12.63793816	      6.84632933	     -3.62286524	      1.46730904	     -0.00849213	     -0.44856425	     26.82216583	    -11.96848678	     -2.30046742	    -64.33429552	    -17.11310114	     10.86014479	     44.27447494	     16.99630724	      9.01783749	    -10.11300753	    -11.41085867	     -3.08775645	      3.94084096	      8.60495398	     12.63569872	     -8.10148274	      0.98357625
      3.45500000	    -12.49873728	      6.59885456	     -3.29157403	      1.47323143	     -0.00788699	     -0.44973926	     27.17741923	    -11.76305371	     -2.58416265	    -64.26820013	    -16.53222269	     10.68254876	     43.47083168	     16.24511353	      8.99027276	     -9.66103027	    -11.03417102	     -2.96021133	      3.98934974	      8.64664361	     12.44254845	     -7.86923643	      0.56531779
      3.46000000	    -12.50613769	      6.33805579	     -2.94066819	      1.47911190	     -0.00746530	     -0.45089979	     27.68771721	    -11.54280594	     -2.91086502	    -64.13472629	    -16.04204291	     10.21308808	     43.19310828	     15.68914968	      8.91966521	     -9.29934229	    -10.71982457	     -2.79943049	      4.14464754	      8.70372443	     12.41449987	     -7.61733045	      0.14619497
      3.46500000	    -12.37412238	      6.07523567	     -2.58040598	      1.48502202	     -0.00693805	     -0.45211633	     28.01377540	    -11.35475080	     -3.25629393	    -63.96478842	    -15.42987282	     10.00119904	     42.29543679	     14.96229045	      8.86474634	     -8.82807490	    -10.37613029	     -2.65110014	      4.18732790	      8.68823271	     12.23488829	     -7.36838207	     -0.28733814
      3.47000000	    -12.33876728	      5.82259743	     -2.22437669	      1.49087578	     -0.00656547	     -0.45326727	     28.45673182	    -11.16549809	     -3.59956048	    -63.76186348	    -14.86042129	      9.64515698	     41.51759782	     14.36669724	      8.79180346	     -8.40832074	    -10.07080495	     -2.48255524	      4.29863954	      8.69394718	     12.16540892	     -7.12795194	     -0.70319803
      3.47500000	    -12.33451390	      5.58871410	     -1.91838018	      1.49668605	     -0.00625943	     -0.45431823	     28.94824468	    -10.96898041	     -3.90728166	    -63.49520765	    -14.38123915	      9.07071587	     41.13621074	     13.81524210	      8.71183387	     -8.05344804	     -9.76814470	     -2.32975274	      4.40192887	      8.70972141	     12.13942603	     -6.89489482	     -1.05505617
      3.48000000	    -12.28391476	      5.32534039	     -1.56418605	      1.50251899	     -0.00592600	     -0.45543866	     29.34309111	    -10.78369783	     -4.28190536	    -63.16379684	    -13.86376619	      8.62582895	     40.58912025	     13.21403466	      8.60952482	     -7.62729872	     -9.47652906	     -2.16308567	      4.49847047	      8.70649147	     12.06049630	     -6.64207253	     -1.46442269
      3.48500000	    -12.11266587	      5.11434667	     -1.23585205	      1.50835830	     -0.00556356	     -0.45654754	     29.60782736	    -10.65997930	     -4.60957501	    -62.85052245	    -13.16304645	      8.55488432	     39.14237063	     12.46883168	      8.56271629	     -7.16671578	     -9.16257947	     -1.99256313	      4.50872344	      8.57605585	     11.85725238	     -6.44108555	     -1.82988220
